<svg width="138" height="29" viewBox="0 0 138 29" fill="none" xmlns="http://www.w3.org/2000/svg">
<g clip-path="url(#clip0_2502_311)" filter="url(#filter0_d_2502_311)">
<path d="M4 11.1008C4 5.00078 7.3 1.30078 12.7 1.30078C16.8 1.30078 20.1 3.80078 20.7 7.50078C20.8 7.90078 20.5 8.20078 20.1 8.20078H17.5C17.2 8.20078 17 8.00078 16.9 7.70078C16.4 5.80078 14.8 4.60078 12.7 4.60078C9.8 4.60078 8 7.10078 8 11.1008C8 15.1008 9.8 17.6008 12.8 17.6008C14.9 17.6008 16.4 16.5008 17 14.7008C17.1 14.4008 17.3 14.2008 17.6 14.2008H20.2C20.6 14.2008 20.9 14.6008 20.8 14.9008C20.2 18.5008 17 20.9008 12.8 20.9008C7.3 20.9008 4 17.1008 4 11.1008Z" fill="white"/>
<path d="M28.2997 20.401H25.3997C25.0997 20.401 24.8997 20.201 24.8997 19.901V2.60104C24.8997 2.20104 25.2997 1.80104 25.6997 1.80104H32.6997C36.7997 1.80104 39.2997 4.10104 39.2997 7.70104C39.2997 9.80104 38.2997 11.701 36.5997 12.701C36.1997 12.901 36.0997 13.401 36.2997 13.701L39.3997 19.601C39.5997 19.901 39.2997 20.301 38.9997 20.301H35.6997C35.4997 20.301 35.2997 20.201 35.1997 20.001L32.2997 14.001C32.1997 13.701 31.8997 13.601 31.5997 13.601H29.2997C28.9997 13.601 28.7997 13.801 28.7997 14.101V20.001C28.8997 20.201 28.5997 20.401 28.2997 20.401ZM28.8997 10.201C28.8997 10.501 29.0997 10.701 29.3997 10.701H32.3997C34.3997 10.701 35.4997 9.60104 35.4997 7.80104C35.4997 6.00104 34.2997 4.90104 32.3997 4.90104H29.4997C29.1997 4.90104 28.9997 5.10104 28.9997 5.40104V10.201H28.8997Z" fill="white"/>
<path d="M55.4998 20.401H44.4998C44.0998 20.401 43.7998 20.101 43.7998 19.701V2.50104C43.7998 2.10104 44.0998 1.80104 44.4998 1.80104H55.4998C55.8998 1.80104 56.1998 2.10104 56.1998 2.50104V4.40104C56.1998 4.80104 55.8998 5.10104 55.4998 5.10104H48.1998C47.8998 5.10104 47.6998 5.30104 47.6998 5.60104V9.00104C47.6998 9.30104 47.8998 9.50104 48.1998 9.50104H54.9998C55.3998 9.50104 55.6998 9.80104 55.6998 10.201V11.901C55.6998 12.301 55.3998 12.601 54.9998 12.601H48.1998C47.8998 12.601 47.6998 12.801 47.6998 13.101V16.901C47.6998 17.201 47.8998 17.401 48.1998 17.401H55.4998C55.8998 17.401 56.1998 17.701 56.1998 18.101V20.001C56.1998 20.101 55.8998 20.401 55.4998 20.401Z" fill="white"/>
<path d="M70.9999 15.901H65.2999C64.9999 15.901 64.7999 16.101 64.6999 16.301L63.5999 20.001C63.4999 20.301 63.2999 20.401 62.9999 20.401H60.3999C59.9999 20.401 59.6999 20.001 59.7999 19.601L65.7999 2.20104C65.8999 2.00104 66.0999 1.80104 66.3999 1.80104H70.0999C70.3999 1.80104 70.5999 2.00104 70.6999 2.20104L76.6999 19.601C76.7999 20.001 76.4999 20.401 76.0999 20.401H73.1999C72.8999 20.401 72.6999 20.201 72.5999 20.001L71.4999 16.301C71.4999 16.101 71.1999 15.901 70.9999 15.901ZM66.0999 13.001H70.1999C70.3999 13.001 70.4999 12.801 70.4999 12.601L68.2999 5.60104H68.0999L65.8999 12.601C65.7999 12.801 65.8999 13.001 66.0999 13.001Z" fill="white"/>
<path d="M83.0001 19.7014V5.50143C83.0001 5.20143 82.8001 5.00143 82.5001 5.00143H78.1001C77.7001 5.00143 77.3001 4.70143 77.3001 4.20143V2.50143C77.3001 2.10143 77.6001 1.70143 78.1001 1.70143H91.7001C92.1001 1.70143 92.5001 2.00143 92.5001 2.50143V4.20143C92.5001 4.60143 92.2001 5.00143 91.7001 5.00143H87.3001C87.0001 5.00143 86.8001 5.20143 86.8001 5.50143V19.8014C86.8001 20.2014 86.5001 20.5014 86.1001 20.5014H83.6001C83.3001 20.4014 83.0001 20.1014 83.0001 19.7014Z" fill="white"/>
<path d="M107.8 20.401H96.7999C96.3999 20.401 96.0999 20.101 96.0999 19.701V2.50104C96.0999 2.10104 96.3999 1.80104 96.7999 1.80104H107.8C108.2 1.80104 108.5 2.10104 108.5 2.50104V4.40104C108.5 4.80104 108.2 5.10104 107.8 5.10104H100.5C100.2 5.10104 99.9999 5.30104 99.9999 5.60104V9.00104C99.9999 9.30104 100.2 9.50104 100.5 9.50104H107.3C107.7 9.50104 108 9.80104 108 10.201V11.901C108 12.301 107.7 12.601 107.3 12.601H100.5C100.2 12.601 99.9999 12.801 99.9999 13.101V16.901C99.9999 17.201 100.2 17.401 100.5 17.401H107.8C108.2 17.401 108.5 17.701 108.5 18.101V20.001C108.5 20.101 108.2 20.401 107.8 20.401Z" fill="white"/>
<path d="M121.7 9.7L115.5 1.6C115.1 1.2 114.6 1 114.1 1C113.6 1 113.1 1.2 112.7 1.6C112 2.4 112 3.6 112.7 4.4L117.6 11L112.7 17.6C112 18.4 112 19.6 112.7 20.4C113.1 20.8 113.6 21 114.1 21C114.6 21 115.1 20.8 115.5 20.4L121.7 12.3C122.4 11.7 122.4 10.5 121.7 9.7Z" fill="#FF3F3A"/>
<path d="M124.343 9.7L130.543 1.6C130.943 1.2 131.443 1 131.943 1C132.443 1 132.943 1.2 133.343 1.6C134.043 2.4 134.043 3.6 133.343 4.4L128.443 11L133.343 17.6C134.043 18.4 134.043 19.6 133.343 20.4C132.943 20.8 132.443 21 131.943 21C131.443 21 130.943 20.8 130.543 20.4L124.343 12.3C123.643 11.7 123.643 10.5 124.343 9.7Z" fill="#FF3F3A"/>
</g>
<defs>
<filter id="filter0_d_2502_311" x="0" y="0" width="138" height="30" filterUnits="userSpaceOnUse" color-interpolation-filters="sRGB">
<feFlood flood-opacity="0" result="BackgroundImageFix"/>
<feColorMatrix in="SourceAlpha" type="matrix" values="0 0 0 0 0 0 0 0 0 0 0 0 0 0 0 0 0 0 127 0" result="hardAlpha"/>
<feOffset dy="4"/>
<feGaussianBlur stdDeviation="2"/>
<feComposite in2="hardAlpha" operator="out"/>
<feColorMatrix type="matrix" values="0 0 0 0 0 0 0 0 0 0 0 0 0 0 0 0 0 0 0.25 0"/>
<feBlend mode="normal" in2="BackgroundImageFix" result="effect1_dropShadow_2502_311"/>
<feBlend mode="normal" in="SourceGraphic" in2="effect1_dropShadow_2502_311" result="shape"/>
</filter>
<clipPath id="clip0_2502_311">
<rect width="130" height="22" fill="white" transform="translate(4)"/>
</clipPath>
</defs>
</svg>
